<svg xmlns="http://www.w3.org/2000/svg" viewBox="0 0 64 64">
  <rect width="64" height="64" rx="16" fill="#0a0f1e"/>
  <path d="M33.7 6.5c3.2 8.5.2 12.2-2.8 16.1-2.5 3.2-5 6.4-3 12.4 2.7-3.8 5.9-6.4 9.5-8 8.8 7.2 12.2 17.8 6.1 25.4-5.1 6.4-15.1 7.7-22.1 2.7-7.4-5.3-8.1-15.6-3.5-23.4 2.4-4.1 6.2-7.5 8.8-11.3 2.5-3.7 3.4-8 7-13.9z" fill="#f97316"/>
  <path d="M32.7 33.4c2.1 4.8.1 7.1-1.5 9.3-1.4 1.9-2.2 3.7-.8 6.7-4.8-.9-7.8-4.3-7.3-8.7.4-3.8 3.4-6 5.9-8.4 1.5-1.4 2.6-3 3.7-5.2z" fill="#fed7aa"/>
  <path d="M37.4 29.9c5.6 5.5 6.9 13.4 2.1 18.4-2.1 2.2-4.8 3.4-7.6 3.6 4.8-3.8 2.9-8.2 1.8-11.2-1.3-3.6.2-7.5 3.7-10.8z" fill="#ef4444" opacity=".9"/>
</svg>
